<svg width="25" height="15" viewBox="0 0 25 15" fill="none" xmlns="http://www.w3.org/2000/svg">
<path fill-rule="evenodd" clip-rule="evenodd" d="M24.4271 1.19648C24.6 0.627734 24.4271 0.208984 23.599 0.208984H20.8646C20.1688 0.208984 19.8479 0.570443 19.674 0.969401C19.674 0.969401 18.2833 4.29857 16.3135 6.46107C15.676 7.08815 15.3865 7.28711 15.0385 7.28711C14.8646 7.28711 14.6031 7.08815 14.6031 6.51836V1.19648C14.6031 0.513151 14.4115 0.208984 13.8323 0.208984H9.53229C9.09792 0.208984 8.83646 0.525651 8.83646 0.826693C8.83646 1.47357 9.82187 1.62357 9.92292 3.4444V7.40065C9.92292 8.26836 9.76354 8.42565 9.41562 8.42565C8.48854 8.42565 6.23333 5.08086 4.89479 1.25378C4.63542 0.508984 4.37292 0.208984 3.67396 0.208984H0.9375C0.15625 0.208984 0 0.570443 0 0.969401C0 1.67982 0.927083 5.20898 4.31771 9.87669C6.57812 13.0642 9.76042 14.7923 12.6594 14.7923C14.3979 14.7923 14.6125 14.409 14.6125 13.7475V11.3382C14.6125 10.5704 14.7771 10.4173 15.3281 10.4173C15.7344 10.4173 16.4292 10.6173 18.0521 12.1538C19.9062 13.9757 20.2115 14.7923 21.2552 14.7923H23.9896C24.7708 14.7923 25.1625 14.409 24.9375 13.6507C24.6896 12.8965 23.8042 11.8017 22.6302 10.5027C21.9927 9.76315 21.0365 8.96628 20.7458 8.56732C20.3406 8.05586 20.4562 7.82773 20.7458 7.37253C20.7458 7.37253 24.0792 2.76211 24.426 1.19648H24.4271Z" fill="#650EF3"/>
</svg>
