<svg width="24" height="18" viewBox="0 0 24 18" fill="none" xmlns="http://www.w3.org/2000/svg">
<path d="M23.5001 3.5061C23.3642 3.02133 23.0995 2.58245 22.7341 2.2361C22.3584 1.8791 21.8979 1.62374 21.3961 1.4941C19.5181 0.999099 11.9941 0.9991 11.9941 0.9991C8.85746 0.963412 5.72156 1.12037 2.60413 1.4691C2.10232 1.60831 1.64269 1.86939 1.26613 2.2291C0.896129 2.5851 0.628129 3.0241 0.488129 3.5051C0.151822 5.31684 -0.0115791 7.15644 0.000128902 8.9991C-0.0118711 10.8401 0.151129 12.6791 0.488129 14.4931C0.625129 14.9721 0.892129 15.4091 1.26313 15.7621C1.63413 16.1151 2.09613 16.3701 2.60413 16.5051C4.50713 16.9991 11.9941 16.9991 11.9941 16.9991C15.1348 17.0348 18.2747 16.8779 21.3961 16.5291C21.8979 16.3995 22.3584 16.1441 22.7341 15.7871C23.1041 15.4341 23.3671 14.9951 23.4991 14.5171C23.8442 12.7061 24.012 10.8657 24.0001 9.0221C24.0261 7.1707 23.8585 5.32166 23.5001 3.5051V3.5061ZM9.60213 12.4231V5.5761L15.8621 9.0001L9.60213 12.4231Z" fill="white"/>
</svg>
