<svg width="122" height="27" viewBox="0 0 122 27" fill="none" xmlns="http://www.w3.org/2000/svg">
<path d="M7.30469 21H4.27734V9.24219H0.400391V6.72266H11.1816V9.24219H7.30469V21ZM23.1191 21L22.2793 17.1816L21.1465 12.3574H21.0781L19.0859 21H15.8828L12.7773 10.082H15.7461L17.0059 14.916C17.2077 15.7819 17.4128 16.9766 17.6211 18.5H17.6797C17.7057 18.0052 17.8197 17.2207 18.0215 16.1465L18.1777 15.3164L19.5254 10.082H22.8066L24.0859 15.3164C24.112 15.4596 24.151 15.6712 24.2031 15.9512C24.2617 16.2311 24.3171 16.5306 24.3691 16.8496C24.4212 17.1621 24.4668 17.4714 24.5059 17.7773C24.5514 18.0768 24.5775 18.3177 24.584 18.5H24.6426C24.7012 18.0312 24.8053 17.39 24.9551 16.5762C25.1048 15.7559 25.2122 15.2025 25.2773 14.916L26.5859 10.082H29.5059L26.3613 21H23.1191ZM36.7949 11.9961C36.1634 11.9961 35.6686 12.1979 35.3105 12.6016C34.9525 12.9987 34.7474 13.5651 34.6953 14.3008H38.875C38.862 13.5651 38.6699 12.9987 38.2988 12.6016C37.9277 12.1979 37.4264 11.9961 36.7949 11.9961ZM37.2148 21.1953C35.457 21.1953 34.0833 20.7103 33.0938 19.7402C32.1042 18.7702 31.6094 17.3965 31.6094 15.6191C31.6094 13.7897 32.0651 12.377 32.9766 11.3809C33.8945 10.3783 35.1608 9.87695 36.7754 9.87695C38.3184 9.87695 39.5195 10.3164 40.3789 11.1953C41.2383 12.0742 41.668 13.2884 41.668 14.8379V16.2832H34.627C34.6595 17.1296 34.9102 17.7904 35.3789 18.2656C35.8477 18.7409 36.5052 18.9785 37.3516 18.9785C38.0091 18.9785 38.6309 18.9102 39.2168 18.7734C39.8027 18.6367 40.4147 18.4186 41.0527 18.1191V20.4238C40.5319 20.6842 39.9753 20.8763 39.3828 21C38.7904 21.1302 38.0677 21.1953 37.2148 21.1953ZM55.168 21H52.1895V14.623C52.1895 13.8353 52.0495 13.2461 51.7695 12.8555C51.4896 12.4583 51.0436 12.2598 50.4316 12.2598C49.5983 12.2598 48.9961 12.5397 48.625 13.0996C48.2539 13.653 48.0684 14.5742 48.0684 15.8633V21H45.0898V10.082H47.3652L47.7656 11.4785H47.9316C48.2637 10.9512 48.7194 10.554 49.2988 10.2871C49.8848 10.0137 50.5488 9.87695 51.291 9.87695C52.5605 9.87695 53.5241 10.222 54.1816 10.9121C54.8392 11.5957 55.168 12.5853 55.168 13.8809V21ZM63.834 18.8223C64.3548 18.8223 64.9798 18.7083 65.709 18.4805V20.6973C64.9668 21.0293 64.0553 21.1953 62.9746 21.1953C61.7832 21.1953 60.9141 20.8958 60.3672 20.2969C59.8268 19.6914 59.5566 18.7865 59.5566 17.582V12.3184H58.1309V11.0586L59.7715 10.0625L60.6309 7.75781H62.5352V10.082H65.5918V12.3184H62.5352V17.582C62.5352 18.0052 62.6523 18.3177 62.8867 18.5195C63.1276 18.7214 63.4434 18.8223 63.834 18.8223ZM67.3633 10.082H70.625L72.6855 16.2246C72.8613 16.7585 72.9818 17.39 73.0469 18.1191H73.1055C73.1771 17.4486 73.3171 16.8171 73.5254 16.2246L75.5469 10.082H78.7402L74.1211 22.3965C73.6979 23.5358 73.0924 24.3887 72.3047 24.9551C71.5234 25.5215 70.6087 25.8047 69.5605 25.8047C69.0462 25.8047 68.5417 25.7493 68.0469 25.6387V23.2754C68.4049 23.36 68.7956 23.4023 69.2188 23.4023C69.7461 23.4023 70.2051 23.2396 70.5957 22.9141C70.9928 22.5951 71.3021 22.11 71.5234 21.459L71.6992 20.9219L67.3633 10.082ZM87.0547 21H84.0273V9.24219H80.1504V6.72266H90.9316V9.24219H87.0547V21ZM102.869 21L102.029 17.1816L100.896 12.3574H100.828L98.8359 21H95.6328L92.5273 10.082H95.4961L96.7559 14.916C96.9577 15.7819 97.1628 16.9766 97.3711 18.5H97.4297C97.4557 18.0052 97.5697 17.2207 97.7715 16.1465L97.9277 15.3164L99.2754 10.082H102.557L103.836 15.3164C103.862 15.4596 103.901 15.6712 103.953 15.9512C104.012 16.2311 104.067 16.5306 104.119 16.8496C104.171 17.1621 104.217 17.4714 104.256 17.7773C104.301 18.0768 104.327 18.3177 104.334 18.5H104.393C104.451 18.0312 104.555 17.39 104.705 16.5762C104.855 15.7559 104.962 15.2025 105.027 14.916L106.336 10.082H109.256L106.111 21H102.869ZM114.396 15.5215C114.396 16.6022 114.572 17.4193 114.924 17.9727C115.282 18.526 115.861 18.8027 116.662 18.8027C117.456 18.8027 118.026 18.5293 118.371 17.9824C118.723 17.429 118.898 16.6087 118.898 15.5215C118.898 14.4408 118.723 13.6302 118.371 13.0898C118.02 12.5495 117.443 12.2793 116.643 12.2793C115.848 12.2793 115.275 12.5495 114.924 13.0898C114.572 13.6237 114.396 14.4342 114.396 15.5215ZM121.945 15.5215C121.945 17.2988 121.477 18.6888 120.539 19.6914C119.602 20.694 118.296 21.1953 116.623 21.1953C115.575 21.1953 114.65 20.9674 113.85 20.5117C113.049 20.0495 112.434 19.3887 112.004 18.5293C111.574 17.6699 111.359 16.6673 111.359 15.5215C111.359 13.7376 111.825 12.3509 112.756 11.3613C113.687 10.3717 114.995 9.87695 116.682 9.87695C117.73 9.87695 118.654 10.1048 119.455 10.5605C120.256 11.0163 120.871 11.6706 121.301 12.5234C121.73 13.3763 121.945 14.3757 121.945 15.5215Z" fill="#202020"/>
</svg>
